<?xml version="1.0" encoding="UTF-8"?><svg id="Layer_1" xmlns="http://www.w3.org/2000/svg" viewBox="0 0 93.8 121.8"><defs><style>.cls-1{fill:#fff;}.cls-2{fill:#dcdedc;}.cls-3{fill:#f2f3f2;}.cls-4{fill:#ffc31a;fill-rule:evenodd;}.cls-5{fill:none;}.cls-6{fill:#252530;}.cls-7{fill:#ff492c;}</style></defs><g id="Layer_2"><path class="cls-5" d="M92.4,8.1h2.4v1.7h-2.4v-1.7Z"/><path id="Fill-1" class="cls-1" d="M8.1,89.9l39.5,20.1,38-20.1V11.3H8.1V89.9Z"/><path id="Path-2" class="cls-3" d="M86.4,11.6L7.3,91.3l41,20.3,38.1-19.5V11.6Z"/><path id="outline" class="cls-2" d="M5.5,37.5v54.1l1.4,.7,39.5,20.1,1.2,.6,1.2-.6,38.1-20.1,1.4-.7V8.7H5.5v28.8Zm2.6,52.6V11.3H85.7V90.1l-38.1,20.1L8.1,90.1Z"/><path id="g2" class="cls-7" d="M46.9,12.6c.4,0,.8,0,1.2,.1l-1.2,2.3c-1.8-.1-3.4,1.3-3.5,3.1-.1,1.8,1.3,3.4,3.1,3.5h.4c.8,0,1.6-.3,2.2-.8l1.3,2.2c-1,.7-2.2,1.1-3.5,1.1-3.2,.1-5.9-2.3-6-5.5-.1-3.2,2.3-5.9,5.5-6h.5Zm4.1,4.9l1.5,2.5-1.5,2.4-1.4-2.4h-2.9l1.5-2.5h2.8Zm-2.4-.9c0-.4,.1-.8,.3-1.1s.6-.6,.9-.8l.2-.1c.4-.2,.5-.3,.5-.5s-.3-.4-.5-.4c-.4,0-.7,.2-.9,.6l-.5-.5c.1-.2,.3-.4,.5-.6,.3-.2,.6-.2,.9-.2s.7,.1,.9,.3,.4,.5,.4,.8c0,.5-.3,.9-.9,1.1l-.3,.2c-.3,.2-.5,.3-.6,.6h1.8v.7l-2.7-.1Zm-1.7,12.5l9.5-5.4V8.7h-19.1v14.9l9.6,5.5Z"/></g><g id="Layer_1-2"><path class="cls-6" d="M23.3,49.1v-8.8c0-.1,.1-.2,.2-.2h2.3c.1,0,.2,.1,.2,.2v8.8c0,1.3,.9,2.3,2.3,2.3s2.3-.9,2.3-2.3v-8.8c0-.1,.1-.2,.2-.2h2.3c.1,0,.2,.1,.2,.2v8.8c0,2.8-2,4.6-5,4.6s-5-1.9-5-4.6Zm11.7,1.7v-.2c0-.1,.1-.2,.2-.2h2.1c.1,0,.2,.1,.2,.2,0,.6,.7,1,1.7,1,.9,0,1.5-.4,1.5-.9,0-.8-1.5-.8-2.9-1.3-1.3-.4-2.7-1.1-2.7-2.8,0-1.9,1.6-3.1,4.1-3.1s4.1,1.3,4.1,3.1c0,.1-.1,.2-.2,.2h-2.1c-.1,0-.2-.1-.2-.2,0-.6-.6-1-1.6-1-.8,0-1.4,.3-1.4,.9,0,.8,1.3,.8,2.8,1.3,1.5,.4,3,1.1,3,2.9,0,1.9-1.7,3-4.2,3-2.7,0-4.4-1.2-4.4-2.9Zm18.9-1.6c0,.2-.1,.2-.3,.2h-6q-.1,0-.1,.1c0,.3,.1,.5,.2,.8,.3,.7,.9,1.1,2,1.1,.9,0,1.5-.4,2-1,.1-.1,.2-.2,.3,0l1.4,1.4c.1,.1,.1,.2,0,.3-.9,1.1-2.3,1.7-3.9,1.7-2.2,0-3.7-1.1-4.4-2.9-.3-.7-.4-1.4-.4-2.4,0-.7,.1-1.4,.3-2,.6-1.8,2.1-3,4.2-3,2.6,0,4.2,1.7,4.5,4.1,.2,.5,.2,1,.2,1.6Zm-6.2-2.3c-.1,.2-.1,.4-.1,.6q0,.1,.1,.1h3.3q.1,0,.1-.1c0-.2-.1-.4-.1-.5-.2-.8-.8-1.2-1.7-1.2-.8,0-1.3,.4-1.6,1.1Zm14-3.1c.1,.1,.1,.2,.1,.3l-.4,2.2c0,.2-.1,.2-.3,.1-.3-.1-.7-.1-1.1-.1-.9,.1-1.7,.7-1.7,1.7v5.3c0,.1-.1,.2-.2,.2h-2.3c-.1,0-.2-.1-.2-.2v-9.4c0-.1,.1-.2,.2-.2h2.3c.1,0,.2,.1,.2,.2v.7c0,.1,.1,.1,.1,.1,.5-.7,1.2-1.2,2.1-1.2,.6,0,.9,.1,1.2,.3Zm.8,7v-.2c0-.1,.1-.2,.2-.2h2.1c.1,0,.2,.1,.2,.2,0,.6,.7,1,1.7,1,.9,0,1.5-.4,1.5-.9,0-.8-1.5-.8-2.9-1.3-1.3-.4-2.7-1.1-2.7-2.8,0-1.9,1.6-3.1,4.1-3.1s4.1,1.3,4.1,3.1c0,.1-.1,.2-.2,.2h-2.1c-.1,0-.2-.1-.2-.2,0-.6-.6-1-1.6-1-.8,0-1.4,.3-1.4,.9,0,.8,1.3,.8,2.8,1.3,1.5,.4,3,1.1,3,2.9,0,1.9-1.7,3-4.2,3-2.7,0-4.4-1.2-4.4-2.9ZM14.6,69.5v-13c0-.1,.1-.2,.2-.2h2.3c.1,0,.2,.1,.2,.2v10.8q0,.1,.1,.1h6.3c.1,0,.2,.1,.2,.2v1.9c0,.1-.1,.2-.2,.2H14.8c-.1,0-.2-.1-.2-.2Zm10.9-2.8c-.2-.6-.3-1.3-.3-2s.1-1.5,.3-2c.6-1.9,2.2-3,4.4-3s3.7,1.2,4.3,3c.2,.6,.3,1.3,.3,2s-.1,1.4-.3,1.9c-.6,2-2.2,3.2-4.3,3.2-2.2,.1-3.9-1.1-4.4-3.1Zm6.1-.6c.1-.4,.2-.9,.2-1.3,0-.5-.1-1-.2-1.4-.3-.9-.9-1.4-1.7-1.4-.9,0-1.5,.5-1.7,1.4-.2,.3-.2,.8-.2,1.4,0,.5,0,1,.1,1.3,.3,.9,.9,1.4,1.8,1.4,.8,.1,1.4-.5,1.7-1.4Zm6.6,3.4l-3.1-9.5c-.1-.2,0-.3,.2-.3h2.5c.1,0,.2,.1,.3,.2l1.6,5.8c0,.1,.1,.1,.1,0l1.6-5.8c0-.1,.1-.2,.3-.2h2.5c.2,0,.3,.1,.2,.3l-3.1,9.4c0,.1-.1,.2-.3,.2h-2.5c-.2,.1-.3,.1-.3-.1Zm15.8-4.1c0,.2-.1,.2-.3,.2h-6q-.1,0-.1,.1c0,.3,.1,.5,.2,.8,.3,.7,.9,1.1,2,1.1,.9,0,1.5-.4,2-1,.1-.1,.2-.2,.3,0l1.4,1.4c.1,.1,.1,.2,0,.3-.9,1.1-2.3,1.7-3.9,1.7-2.2,0-3.7-1.1-4.4-2.9-.3-.7-.4-1.4-.4-2.4,0-.7,.1-1.4,.3-2,.6-1.8,2.1-3,4.2-3,2.6,0,4.2,1.7,4.5,4.1,.2,.5,.2,1,.2,1.6Zm-6.2-2.3c-.1,.2-.1,.4-.1,.6q0,.1,.1,.1h3.3q.1,0,.1-.1c0-.2-.1-.4-.1-.5-.2-.8-.8-1.2-1.7-1.2s-1.4,.4-1.6,1.1Zm11.8,2.2v-8.8c0-.1,.1-.2,.2-.2h2.3c.1,0,.2,.1,.2,.2v8.8c0,1.3,.9,2.3,2.3,2.3s2.3-.9,2.3-2.3v-8.8c0-.1,.1-.2,.2-.2h2.3c.1,0,.2,.1,.2,.2v8.8c0,2.8-2,4.6-5,4.6s-5-1.9-5-4.6Zm11.7,1.7v-.2c0-.1,.1-.2,.2-.2h2.1c.1,0,.2,.1,.2,.2,0,.6,.7,1,1.7,1,.9,0,1.5-.4,1.5-.9,0-.8-1.5-.8-2.9-1.3-1.3-.4-2.7-1.1-2.7-2.8,0-1.9,1.6-3.1,4.1-3.1s4.1,1.3,4.1,3.1c0,.1-.1,.2-.2,.2h-2.1c-.1,0-.2-.1-.2-.2,0-.6-.6-1-1.6-1-.8,0-1.4,.3-1.4,.9,0,.8,1.3,.8,2.8,1.3,1.5,.4,3,1.1,3,2.9,0,1.9-1.7,3-4.2,3-2.7,0-4.4-1.2-4.4-2.9Z"/><path class="cls-2" d="M19.3,81.2h20v.8H19.3v-.8Zm35.8,0h20v.8h-20v-.8Z"/><path id="SVGID" class="cls-4" d="M42.4,80.3l3.1-.5,1.6-3.1,1.5,3,3.3,.6-2.3,2.3,.5,3.3-3-1.4-3,1.4,.4-3.3-2.1-2.3Z"/></g></svg>